# xmcd
#
# Track frame offsets:
#	151
#	14135
#	34823
#	51127
#	64892
#	80158
#	95424
#	108728
#	126994
#	141219
#	157639
#	171983
#	191516
#	207474
#	221596
#
# Disc length: 3229 seconds
#
# Revision: 0
# Processed by: cddbd v1.4PL0 Copyright (c) Steve Scherf et al.
# Submitted via: audiograbber 1.81.03
#
DISCID=e20c9b0f
DTITLE=Calimeros - Buongiorno Amore - Calimeros
DYEAR=1900
DGENRE=Schlager dt.
TTITLE0=Buongiorno Amore
TTITLE1=1000 Liebesbriefe
TTITLE2=Warum blieb die Zeit nicht stehen
TTITLE3=Kleine Isabella
TTITLE4=Es fing mit einem Laecheln an
TTITLE5=Manuela
TTITLE6=Darling i need you
TTITLE7=Komm zu mir in meine Arme
TTITLE8=Die Mühlen von Mallorca
TTITLE9=California my love
TTITLE10=So wie du Marylou
TTITLE11=Kreta
TTITLE12=Ich liebe dich
TTITLE13=Du bist sexy du bist cool
TTITLE14=Du bist wie die Sterne..
EXTD=
EXTT0=
EXTT1=
EXTT2=
EXTT3=
EXTT4=
EXTT5=
EXTT6=
EXTT7=
EXTT8=
EXTT9=
EXTT10=
EXTT11=
EXTT12=
EXTT13=
EXTT14=
PLAYORDER=
